# xmcd CD database file
#
# Track frame offsets:
#	150
#	16079
#	33114
#	45377
#	59007
#	80485
#	101646
#	121946
#	134772
#	149276
#	169609
#	183104
#	197120
#	211851
#	231401
#	249720
#
# Disc length: 3521 seconds
#
# Revision: 0
# Processed by: cddbd v1.5.1PL0 Copyright (c) Steve Scherf et al.
# Submitted via: CDex 1.51
#
DISCID=dc0dbf10
DTITLE=Various Artist - Sax For Lovers
DYEAR=2004
DGENRE=Jazz
TTITLE0=Three Times a Lady
TTITLE1=Unchained Melody
TTITLE2=Lav Vie en Rose
TTITLE3=Days of Wine and Roses
TTITLE4=I Believe I can Fly
TTITLE5=Easy
TTITLE6=My Hearth Will Go On
TTITLE7=Fathers and Son
TTITLE8=Morning Dew
TTITLE9=Endless Love
TTITLE10=Do You Know Where You Are Going To
TTITLE11=That Ole Devil Called Love
TTITLE12=Yesterdays Love
TTITLE13=Alfie
TTITLE14=Nothings Gonna Change My Love For You
TTITLE15=Without You
EXTD=YEAR: 2004
EXTT0=
EXTT1=
EXTT2=
EXTT3=
EXTT4=
EXTT5=
EXTT6=
EXTT7=
EXTT8=
EXTT9=
EXTT10=
EXTT11=
EXTT12=
EXTT13=
EXTT14=
EXTT15=
PLAYORDER=
